<svg xmlns="http://www.w3.org/2000/svg" version="1.1" xmlns:xlink="http://www.w3.org/1999/xlink" width="512" height="512"><svg xmlns="http://www.w3.org/2000/svg" version="1.1" xmlns:xlink="http://www.w3.org/1999/xlink" width="512" height="512"><svg width="512" height="512" viewBox="0 0 512 512" fill="none" xmlns="http://www.w3.org/2000/svg">
<path d="M9 402.313C9 458.146 37.7123 471 67.5731 471C130.74 471 178.211 413.56 206.541 368.171C203.095 378.212 201.181 388.254 201.181 397.895C201.181 424.405 215.729 443.284 244.441 443.284C283.872 443.284 325.984 407.133 347.805 368.171C346.274 373.794 345.508 379.016 345.508 383.836C345.508 402.313 355.462 413.962 375.752 413.962C439.684 413.962 504 295.467 504 191.834C504 111.097 464.951 40 366.947 40C194.673 40 9 260.119 9 402.313ZM307.608 182.997C307.608 162.913 318.327 148.855 334.023 148.855C349.336 148.855 360.056 162.913 360.056 182.997C360.056 203.081 349.336 217.541 334.023 217.541C318.327 217.541 307.608 203.081 307.608 182.997ZM389.534 182.997C389.534 162.913 400.253 148.855 415.949 148.855C431.262 148.855 441.981 162.913 441.981 182.997C441.981 203.081 431.262 217.541 415.949 217.541C400.253 217.541 389.534 203.081 389.534 182.997Z" fill="#AB9FF2"></path>
</svg></svg><style>@media (prefers-color-scheme: light) { :root { filter: none; } }
@media (prefers-color-scheme: dark) { :root { filter: none; } }
</style></svg>